# xmcd
#
# Track frame offsets:
#	150
#	27213
#	46481
#	74318
#	92268
#	122504
#	143148
#	167891
#	188340
#	212772
#	235569
#	260849
#	276869
#	289500
#
# Disc length: 4294 seconds
# Revision: 0
# Processed by: cddbd v1.5.2PL0 Copyright (c) Steve Scherf et al.
# Submitted via: dBpowerAMP V12.0
#
DISCID=c010c40e
DTITLE=Various Artist - Berlin Calling: The Soundtrack
DYEAR=2008
DGENRE=Electronic
TTITLE0=Paul Kalkbrenner - Aaron
TTITLE1=Paul Kalkbrenner - Queer Fellow
TTITLE2=Paul Kalkbrenner - Azure
TTITLE3=Paul and Fritz Kalkbrenner - Sky and Sand
TTITLE4=Paul Kalkbrenner - Square 1
TTITLE5=Paul Kalkbrenner - Altes Kamuffel (Special Berlin Calling Edit)
TTITLE6=Paul Kalkbrenner - Torted
TTITLE7=Sascha Funke - Mango (Special Berlin Calling Edit)
TTITLE8=Paul Kalkbrenner - Qsa
TTITLE9=Paul Kalkbrenner - Castenets (Special Berlin Calling Edit)
TTITLE10=Paul Kalkbrenner - Bengang
TTITLE11=Paul Kalkbrenner - Peet
TTITLE12=Paul Kalkbrenner - Train
TTITLE13=Paul Kalkbrenner - Gebrünn Gebrünn (Special Berlin Calling Edit)
EXTD=
EXTT0=
EXTT1=
EXTT2=
EXTT3=
EXTT4=
EXTT5=
EXTT6=
EXTT7=
EXTT8=
EXTT9=
EXTT10=
EXTT11=
EXTT12=
EXTT13=
PLAYORDER=
